<?xml version="1.0" encoding="utf-8"?>
<svg version="1.1" xmlns:xlink="http://www.w3.org/1999/xlink" width="5px" height="3px" xmlns="http://www.w3.org/2000/svg">
  <g transform="matrix(1 0 0 1 -6 -71 )">
    <path d="M 0.333806818181829 1.36610186073862  C 0.254056189840038 1.36610186073862  0.177576308817687 1.39225540291815  0.121212121212133 1.43880208333334  C 0.00392730245112372 1.53560968694999  0.00392730245112372 1.69251531305001  0.121212121212133 1.78932291666667  L 1.47095959595958 2.903125  C 1.53016674783532 2.95202527162242  1.61050844441316 2.97950173344161  1.69428661616162 2.97950173344161  C 1.77806478791004 2.97950173344161  1.85840648448793 2.95202527162242  1.91761363636362 2.903125  L 4.87152777777778 0.465885416666666  C 4.92836771039858 0.417333568079123  4.96013629869716 0.352470740514768  4.96013629869716 0.284970886908184  C 4.96013629869716 0.141146733306414  4.81881204043666 0.0245542202415194  4.64447973304057 0.0245542202415194  C 4.56266172866898 0.0245542202415194  4.48404011950004 0.0507633055878287  4.42518939393941 0.09765625  L 1.78440656565657 2.27604166666667  C 1.72277464465184 2.32687264822043  1.62286929474208 2.32687264822043  1.56123737373739 2.27604166666667  L 0.546401515151525 1.43880208333334  C 0.49003732754593 1.39225540291815  0.413557446523579 1.36610186073862  0.333806818181829 1.36610186073862  Z " fill-rule="nonzero" fill="#ffffff" stroke="none" transform="matrix(1 0 0 1 6 71 )" />
  </g>
</svg>