<?xml version="1.0" encoding="utf-8"?>
<svg version="1.1" xmlns:xlink="http://www.w3.org/1999/xlink" width="5px" height="5px" xmlns="http://www.w3.org/2000/svg">
  <g transform="matrix(1 0 0 1 -305 -21 )">
    <path d="M 4.94252874124459 2.50798211880388  C 4.94252874124459 3.85057470703124  3.85057470703123 4.94252874124462  2.50798211880385 4.94252874124462  C 1.16538953057653 4.94252874124462  0.0734354963631745 3.85057470703126  0.0734354963631745 2.50798211880388  C 0.0734354963631745 1.1653895305765  1.16538953057653 0.0734354963631461  2.50798211880385 0.0734354963631461  C 3.85057470703123 0.0734354963631461  4.94252874124459 1.1653895305765  4.94252874124459 2.50798211880388  Z M 4.22413793103448 2.50798211880388  C 4.22413793103448 1.56130268386315  3.45466155374459 0.79182630657327  2.50798211880385 0.79182630657327  C 1.56130268386318 0.79182630657327  0.791826306573284 1.56130268386315  0.791826306573284 2.50798211880388  C 0.791826306573284 3.45466155374461  1.56130268386318 4.22413793103448  2.50798211880385 4.22413793103448  C 3.45466155374459 4.22413793103448  4.22413793103448 3.45466155374461  4.22413793103448 2.50798211880388  Z " fill-rule="nonzero" fill="#000000" stroke="none" transform="matrix(1 0 0 1 305 21 )" />
  </g>
</svg>