<?xml version="1.0" encoding="utf-8"?>
<svg version="1.1" xmlns:xlink="http://www.w3.org/1999/xlink" width="20px" height="20px" xmlns="http://www.w3.org/2000/svg">
  <g transform="matrix(1 0 0 1 -4 -15 )">
    <path d="M 20 10  C 20 4.5  15.5 0  10 0  C 4.5 0  0 4.5  0 10  C 0 15.5  4.5 20  10 20  C 15.5 20  20 15.5  20 10  Z M 19.1666666601563 10  C 19.1666666601563 15.0416666601562  15.0416666601562 19.1666666601563  10 19.1666666601563  C 4.95833333984375 19.1666666601563  0.83333333984375 15.0416666601562  0.83333333984375 10  C 0.83333333984375 4.95833333984375  4.95833333984375 0.83333333984375  10 0.83333333984375  C 15.0416666601562 0.83333333984375  19.1666666601563 4.95833333984375  19.1666666601563 10  Z " fill-rule="nonzero" fill="#2c2c2c" stroke="none" transform="matrix(1 0 0 1 4 15 )" />
  </g>
</svg>