<?xml version="1.0" encoding="utf-8"?>
<svg version="1.1" xmlns:xlink="http://www.w3.org/1999/xlink" width="15px" height="15px" xmlns="http://www.w3.org/2000/svg">
  <g transform="matrix(1 0 0 1 -300 -16 )">
    <path d="M 8.90873015485494 14.8098544921875  C 8.44576719447548 14.8958333217076  7.97288359723774 14.9404761788504  7.5 14.9404761962891  C 7.02215609305244 14.9404761962891  6.54265872628349 14.8941798967634  6.07638888113837 14.8048941824777  L 5.76554232352123 14.7453703787667  L 5.77380951799665 14.4295634940011  C 5.77876982770647 14.2658730119978  5.74900793457033 14.1071428571429  5.68617724609373 13.9533730119978  C 5.44146824428015 13.3630952322824  4.76355819266183 13.08201058524  4.17328043038503 13.326719569615  C 4.02281747000558 13.3895502580915  3.89054234095983 13.4788359723772  3.77976191057479 13.5945767124721  L 3.56481481933594 13.8227513253348  L 3.30357142857144 13.6441798967634  C 2.52480158342632 13.1101190534319  1.8601190534319 12.4437830636161  1.3326719621931 11.661706351144  L 1.15575397600446 11.4021164027623  L 1.38227512904575 11.1855158691406  C 1.4980158691406 11.0747354387556  1.58895502580913 10.9424603097098  1.65013227190292 10.7919973493304  C 1.76917989676338 10.5059523751395  1.76917989676338 10.1917989327567  1.65013227190292 9.90575397600446  C 1.53108464704241 9.61970901925223  1.30952380371093 9.39814815848214  1.02347882952012 9.27910053362166  C 0.874669311523462 9.2179232875279  0.719246023995538 9.18816137695313  0.560515869140602 9.19146826171875  L 0.246362426757798 9.19642857142857  L 0.188492065429671 8.8888888811384  C 0.102513235909612 8.43419311523438  0.0595238037109311 7.96626982770647  0.0595238037109311 7.5  C 0.0595238037109311 7.02711640276227  0.104166660853821 6.55423280552455  0.191798950195334 6.0945767124721  L 0.251322753906265 5.78538359723773  L 0.565476196289069 5.79199734933036  C 0.725859793526809 5.79530423409598  0.882936505998885 5.7655423235212  1.03174602399554 5.70436507742745  C 1.31779099818641 5.58531745256697  1.53935184151788 5.36375660923549  1.65839946637834 5.07771163504465  C 1.77744709123886 4.79166666085379  1.77744709123886 4.47751321847099  1.65839946637834 4.19146826171875  C 1.59722222028461 4.0426587437221  1.50793650599888 3.91038359723773  1.39219576590403 3.80125660923549  L 1.16567459542409 3.58300265066964  L 1.34259259905133 3.32341270228795  C 1.87334657505579 2.54298941476004  2.53802910505021 1.87665344238282  3.31845237513949 1.34589946637836  L 3.57969576590403 1.16898148018973  L 3.7979497419085 1.39715609305246  C 4.12533068847654 1.74107142857143  4.64120371791296 1.85019841657366  5.07936507742744 1.66832010323661  C 5.51917989676338 1.48644178989956  5.80687831333705 1.04497354561943  5.79365079171316 0.568783063616067  L 5.78538359723774 0.252976196289069  L 6.09457671247208 0.191798950195306  C 7.00892857142856 0.0165344063895105  7.97288359723774 0.0148809640066929  8.89054232352123 0.188492065429685  L 9.20138888113837 0.24801586914063  L 9.19312168666295 0.565476196289069  C 9.17989416503906 1.04166667829242  9.46759258161273 1.48478836495536  9.90740740094867 1.66666666085379  C 10.3488756626674 1.85019839913504  10.866402117048 1.73941798618861  11.1937830636161 1.3905423235212  L 11.4103835972377 1.16071428571429  L 11.673280430385 1.33928571428571  C 12.4553571428572 1.87003969029018  13.1200396902902 2.53306877790179  13.6524470912389 3.31349206542968  L 13.8310185198103 3.57473545619419  L 13.6011904820033 3.79298941476004  C 13.4821428571428 3.90542327008929  13.391203717913 4.03935184151786  13.3283730119978 4.19146826171875  C 13.2093253871373 4.4775132359096  13.2093253871373 4.79166667829242  13.3283730119978 5.07771163504465  C 13.4474206368583 5.36375659179687  13.6689814801898 5.58531745256697  13.9550264543806 5.70436507742745  C 14.1087962995257 5.76719576590402  14.2691798967634 5.7969576764788  14.4328703787667 5.79199734933036  L 14.7503306884765 5.7820767124721  L 14.8082010498047 6.0945767124721  C 14.8958333217076 6.55423280552455  14.9404761788505 7.02876982770647  14.9404761962891 7.5  C 14.9404761962891 7.96626984514509  14.897486781529 8.43419311523438  14.8115079345703 8.8888888811384  L 14.7519841308594 9.2013888811384  L 14.4345238037109 9.19312168666295  C 14.2708333217076 9.18816137695313  14.1121031668527 9.21792327008929  13.9599867640904 9.28075397600446  C 13.369708984375 9.52546297781808  13.0886243373326 10.2033730294364  13.3333333391462 10.7936507917132  C 13.3961640276228 10.9457671944755  13.4887566266741 11.0813492082868  13.607804234096 11.1937830636161  L 13.8392857142857 11.4103835972377  L 13.6607142857143 11.673280430385  C 13.1299603097098 12.4553571428571  12.4669312220982 13.1200396902902  11.6865079345703 13.6524470912388  L 11.4252645438058 13.8310185198103  L 11.20701058524 13.6011904820033  C 11.0945767299107 13.4821428571429  10.9606481584822 13.3912037179129  10.8101851806641 13.3283730119978  C 10.5241402064732 13.2093253871373  10.2099867640904 13.2093253871373  9.92394180733817 13.3283730119978  C 9.63789683314735 13.4474206368583  9.41633598981588 13.6689814801897  9.29728836495536 13.9550264543806  C 9.23445767647877 14.1087962995257  9.20469576590403 14.2691798967634  9.20965609305244 14.4328703787667  L 9.21957671247208 14.7503306884766  L 8.90873015485494 14.8098544921875  Z M 6.37400793457033 13.6673280378069  C 6.43683862304687 13.8161375558036  6.47817459542409 13.9682539585659  6.50132275390627 14.1220238037109  C 7.156084664481 14.2195767124721  7.83068783133371 14.2212301548549  8.48379629952569 14.1236772460937  C 8.50694444056921 13.9682539585658  8.54828043038503 13.8161375558036  8.60945767647877 13.6673280378069  C 8.80456349400112 13.1977513253348  9.16997354561943 12.8323412737165  9.63789683314729 12.6388888811384  C 10.1074735456194 12.4437830636161  10.6233465750558 12.4437830636161  11.0929232875279 12.6388888811384  C 11.2400793805804 12.7000661272321  11.3756613769531 12.7761243373326  11.4996693115235 12.8703703787667  C 12.0254629603795 12.4785053013393  12.4867724783761 12.0155423409598  12.8769841308594 11.4897486746652  C 12.7827381068639 11.364087297712  12.7050264543806 11.2268518415179  12.6438492082868 11.0780423235212  C 12.4487433907645 10.6084656110491  12.4487433907645 10.0925925816127  12.6438492082868 9.62301586914063  C 12.8389550258091 9.15343915666853  13.2043650774274 8.78802910505021  13.6722883649554 8.59457671247209  C 13.8194444580078 8.53339946637834  13.9699074183873 8.49206347656249  14.1236772460937 8.46891533551897  C 14.1699735456194 8.14980158342634  14.1931216866629 7.82572750418527  14.1931216866629 7.5016534423828  C 14.1931216866629 7.17261905343192  14.1683201032366 6.84358466448103  14.1220238037109 6.51951058523996  C 13.966600516183 6.49636244419642  13.8144841134207 6.45502645438057  13.6656745954241 6.39384920828682  C 13.196097882952 6.19874339076451  12.8306878313337 5.83333333914621  12.6372354561942 5.3654100516183  C 12.4437830810547 4.8974867640904  12.4421296386719 4.37996030970982  12.6372354561942 3.91038359723773  C 12.698412702288 3.76322750418527  12.7744709123884 3.6276455078125  12.8687169363839 3.50198413085937  C 12.4768518589565 2.97619048200335  12.013888898577 2.51488096400669  11.4880952322824 2.12466931152343  C 11.2731481410435 2.28505290876116  11.0267857142857 2.39914020647321  10.7622354561942 2.45701058523996  C 10.3786375732422 2.54298941476004  9.9851190534319 2.50826719447544  9.6213624267578 2.35780423409598  C 9.25925925990515 2.20734127371651  8.95502645438057 1.95271163504464  8.74503969029018 1.62367724609375  C 8.59953703962054 1.39550265066964  8.50529101562501 1.14087301199777  8.46726191057479 0.876322753906251  C 7.82242063685828 0.783730154854908  7.15939153180801 0.783730154854908  6.51620370047431 0.877976196289055  C 6.47652115304129 1.14252645438057  6.38227512904575 1.39550265066964  6.23677247837611 1.62367724609375  C 6.02678571428572 1.95271163504464  5.72420633370535 2.20734127371651  5.36210316685265 2.35780423409598  C 5 2.50826719447545  4.60813490513391 2.54298941476004  4.22619048200335 2.45866402762276  C 3.96164022391184 2.40079364885602  3.7169312220982 2.28835979352678  3.5019841308594 2.12962962123326  C 2.97453703962054 2.52149469866072  2.51157407924109 2.98445765904017  2.1213624267578 3.51190476771762  C 2.21064814104352 3.63425925990514  2.28505290876114 3.76653438895089  2.34457671247208 3.90873015485491  C 2.53968252999442 4.37830686732701  2.53968252999442 4.89417989676339  2.34457671247208 5.36375660923548  C 2.14947089494979 5.83333332170758  1.78406084333147 6.19874339076451  1.3161375732422 6.39219576590402  C 1.17394180733817 6.45171956961495  1.02513228934151 6.4930555594308  0.876322753906265 6.51620370047434  C 0.828373011997769 6.84193122209821  0.803571428571445 7.17096561104911  0.803571428571445 7.50165344238282  C 0.803571428571445 7.82572752162389  0.826719569614966 8.15145502580916  0.873015869140602 8.47222222028459  C 1.02182538713726 8.49537036132813  1.1673280378069 8.53670635114398  1.30952380371093 8.5945767124721  C 1.77910051618306 8.78968252999442  2.14451056780132 9.15509258161272  2.33796296037946 9.62301586914063  C 2.53141535295759 10.0909391566685  2.5330687779018 10.6084656110491  2.33796296037946 11.0780423235212  C 2.27843915666853 11.221891531808  2.2023809465681 11.3558201032366  2.11144180733817 11.4781745954241  C 2.5016534423828 12.0056216866629  2.96296297781811 12.4702380894252  3.48875660923551 12.8637566092355  C 3.61111110142298 12.772817452567  3.74503967285159 12.698412702288  3.88888888113837 12.6388888811384  C 4.85780421665737 12.2371031668527  5.97222222028461 12.7000661272321  6.37400793457033 13.6673280378069  Z " fill-rule="nonzero" fill="#000000" stroke="none" transform="matrix(1 0 0 1 300 16 )" />
  </g>
</svg>