<?xml version="1.0" encoding="utf-8"?>
<svg version="1.1" xmlns:xlink="http://www.w3.org/1999/xlink" width="191px" height="27px" xmlns="http://www.w3.org/2000/svg">
  <g transform="matrix(1 0 0 1 -342 -65 )">
    <path d="M 343 78.5  A 12.5 12.5 0 0 1 355.5 66 L 519.5 66  A 12.5 12.5 0 0 1 532 78.5 A 12.5 12.5 0 0 1 519.5 91 L 355.5 91  A 12.5 12.5 0 0 1 343 78.5 Z " fill-rule="nonzero" fill="#ffffff" stroke="none" />
    <path d="M 342.5 78.5  A 13 13 0 0 1 355.5 65.5 L 519.5 65.5  A 13 13 0 0 1 532.5 78.5 A 13 13 0 0 1 519.5 91.5 L 355.5 91.5  A 13 13 0 0 1 342.5 78.5 Z " stroke-width="1" stroke="#ff0000" fill="none" stroke-opacity="0.576470588235294" />
  </g>
</svg>